<?xml version="1.0" encoding="UTF-8" standalone="no"?>
<svg width="16px" height="16px" viewBox="0 0 16 16" version="1.1" xmlns="http://www.w3.org/2000/svg" xmlns:xlink="http://www.w3.org/1999/xlink">
    <!-- Generator: Sketch 3.6.1 (26313) - http://www.bohemiancoding.com/sketch -->
    <title>phone@3x</title>
    <desc>Created with Sketch.</desc>
    <defs></defs>
    <g id="mobile" stroke="none" stroke-width="1" fill="none" fill-rule="evenodd">
        <g id="venue-profile" transform="translate(-31.000000, -240.000000)" fill="#FFFFFF">
            <path d="M46.4406102,251.574345 L44.7178516,249.851862 C44.3592309,249.492966 43.8822654,249.295448 43.3744033,249.295448 C42.8668171,249.295448 42.3898516,249.492966 42.0306792,249.851862 L41.6339895,250.248552 C39.883093,248.792552 38.2017137,247.111172 36.7487482,245.362759 L37.1454378,244.966069 C37.8864033,244.225379 37.8864033,243.019862 37.1454378,242.279172 L35.4224033,240.556414 C35.0637826,240.197517 34.5865413,240 34.0789551,240 C33.5713689,240 33.0941275,240.197517 32.7349551,240.556414 L31.7904033,241.501241 C30.8839206,242.407724 30.7399206,243.842759 31.4477826,244.913931 C34.2174378,249.101241 37.8952309,252.778483 42.0825413,255.548414 C42.5283344,255.843034 43.0458516,255.998897 43.5796447,255.998897 C44.3043344,255.998897 44.9843344,255.717241 45.4949551,255.206069 L46.4400585,254.261241 C47.181024,253.520828 47.1812999,252.31531 46.4406102,251.574345 L46.4406102,251.574345 Z" id="phone"></path>
        </g>
    </g>
</svg>