<?xml version="1.0" encoding="UTF-8" standalone="no"?>
<svg width="17px" height="16px" viewBox="0 0 17 16" version="1.1" xmlns="http://www.w3.org/2000/svg" xmlns:xlink="http://www.w3.org/1999/xlink">
    <!-- Generator: Sketch 3.6.1 (26313) - http://www.bohemiancoding.com/sketch -->
    <title>star</title>
    <desc>Created with Sketch.</desc>
    <defs></defs>
    <g id="mobile" stroke="none" stroke-width="1" fill="none" fill-rule="evenodd">
        <g id="event-details" transform="translate(-32.000000, -262.000000)" fill="#FFFFFF">
            <path d="M48.4191863,268.885417 L48.4194438,268.885417 L44.2690589,271.923025 L45.8678764,276.864998 C45.8928539,276.943153 45.9065014,277.023912 45.9065014,277.109882 C45.9065014,277.542338 45.5606789,277.891428 45.1340014,277.891428 C44.9650814,277.891428 44.8087789,277.83672 44.6815739,277.742934 L44.6813164,277.742934 L40.4990015,274.681881 L36.3169441,277.742934 L36.3166866,277.742934 C36.1894817,277.83672 36.0331792,277.891428 35.8640017,277.891428 C35.4375817,277.891428 35.0915017,277.542338 35.0915017,277.109882 C35.0915017,277.023912 35.1054067,276.943153 35.1303842,276.864998 L36.7292016,271.923025 L32.5788168,268.885417 C32.3851768,268.744739 32.2592593,268.51288 32.2592593,268.252365 C32.2592593,267.81991 32.6050817,267.47082 33.0315017,267.47082 L38.1693991,267.47082 L39.7604916,262.552292 C39.8573115,262.231859 40.1513765,262 40.4990015,262 C40.846884,262 41.140949,262.231859 41.237769,262.552292 L42.8288615,267.47082 L47.9665013,267.47082 C48.3931788,267.47082 48.7392588,267.81991 48.7392588,268.252365 C48.7392588,268.51288 48.6130838,268.744739 48.4191863,268.885417" id="star"></path>
        </g>
    </g>
</svg>