<?xml version="1.0" encoding="UTF-8" standalone="no"?>
<svg width="14px" height="19px" viewBox="0 0 14 19" version="1.1" xmlns="http://www.w3.org/2000/svg" xmlns:xlink="http://www.w3.org/1999/xlink">
    <!-- Generator: Sketch 3.6.1 (26313) - http://www.bohemiancoding.com/sketch -->
    <title>pin</title>
    <desc>Created with Sketch.</desc>
    <defs></defs>
    <g id="mobile" stroke="none" stroke-width="1" fill="none" fill-rule="evenodd">
        <g id="event-details" transform="translate(-33.000000, -315.000000)" fill="#FFFFFF">
            <path d="M40,317.333333 C37.423125,317.333333 35.3333333,319.422833 35.3333333,322 C35.3333333,324.577167 37.423125,326.666667 40,326.666667 C42.5771667,326.666667 44.6666667,324.577167 44.6666667,322 C44.6666667,319.422833 42.5771667,317.333333 40,317.333333 L40,317.333333 Z M40,333.666667 C40,333.666667 33,325.86575 33,322 C33,318.13425 36.13425,315 40,315 C43.86575,315 47,318.13425 47,322 C47,325.86575 40,333.666667 40,333.666667 L40,333.666667 Z" id="pin"></path>
        </g>
    </g>
</svg>