<?xml version="1.0" encoding="UTF-8" standalone="no"?>
<svg width="20px" height="20px" viewBox="0 0 20 20" version="1.1" xmlns="http://www.w3.org/2000/svg" xmlns:xlink="http://www.w3.org/1999/xlink">
    <!-- Generator: Sketch 3.6.1 (26313) - http://www.bohemiancoding.com/sketch -->
    <title>search@3x</title>
    <desc>Created with Sketch.</desc>
    <defs></defs>
    <g id="desktop" stroke="none" stroke-width="1" fill="none" fill-rule="evenodd">
        <g id="jables-home" transform="translate(-1092.000000, -28.000000)" fill="#FFFFFF">
            <path d="M1099.5,29.875 C1096.39375,29.875 1093.875,32.3934375 1093.875,35.5 C1093.875,38.6065625 1096.39375,41.125 1099.5,41.125 C1102.60625,41.125 1105.125,38.6065625 1105.125,35.5 C1105.125,32.3934375 1102.60625,29.875 1099.5,29.875 L1099.5,29.875 Z M1111.45,44.7990625 C1111.79063,45.1384375 1112,45.6071875 1112,46.125 C1112,47.160625 1111.15937,48 1110.125,48 C1109.60625,48 1109.1375,47.79 1108.8,47.450625 L1103.30312,41.955625 C1102.1875,42.615 1100.89062,43 1099.5,43 C1095.35938,43 1092,39.6421875 1092,35.5 C1092,31.3578125 1095.35938,28 1099.5,28 C1103.64375,28 1107,31.3578125 1107,35.5 C1107,36.8903125 1106.61562,38.1878125 1105.95625,39.3040625 L1111.45,44.7990625 L1111.45,44.7990625 Z" id="search"></path>
        </g>
    </g>
</svg>