<?xml version="1.0" encoding="UTF-8" standalone="no"?>
<svg width="27px" height="27px" viewBox="0 0 27 27" version="1.1" xmlns="http://www.w3.org/2000/svg" xmlns:xlink="http://www.w3.org/1999/xlink">
    <!-- Generator: Sketch 3.6.1 (26313) - http://www.bohemiancoding.com/sketch -->
    <title>settings</title>
    <desc>Created with Sketch.</desc>
    <defs></defs>
    <g id="desktop" stroke="none" stroke-width="1" fill="none" fill-rule="evenodd">
        <g id="jables-home" transform="translate(-1159.000000, -24.000000)" fill="#FFFFFF">
            <path d="M1185.8905,38.8827847 L1185.8905,36.8982153 C1185.8905,36.2535965 1185.36759,35.730689 1184.72185,35.730689 L1184.40066,35.730689 C1183.65237,35.730689 1182.99986,35.2472249 1182.75756,34.5394966 C1182.61219,34.1123803 1182.43863,33.6976605 1182.24029,33.2975912 C1181.90558,32.6225446 1182.02166,31.8145172 1182.55471,31.281467 L1182.78461,31.051568 C1183.2399,30.5951509 1183.2399,29.8558678 1182.78461,29.3994506 L1181.38155,27.9975175 C1180.92513,27.5411003 1180.18585,27.5411003 1179.72943,27.9975175 L1179.48263,28.2431939 C1178.95296,28.7739901 1178.14831,28.8923205 1177.47439,28.5621224 C1177.07883,28.368286 1176.66975,28.1981156 1176.24827,28.0549922 C1175.53716,27.8138237 1175.05031,27.1601892 1175.05031,26.4096366 L1175.05031,26.0591533 C1175.05031,25.4134075 1174.5274,24.8905 1173.88278,24.8905 L1171.89822,24.8905 C1171.2536,24.8905 1170.73069,25.4134075 1170.73069,26.0591533 L1170.73069,26.4445722 C1170.73069,27.190617 1170.24948,27.8419976 1169.544,28.086547 C1169.13267,28.2285434 1168.7326,28.3964599 1168.34605,28.5880424 C1167.66988,28.9227483 1166.86185,28.8066718 1166.3288,28.2736217 L1166.05157,27.9975175 C1165.59515,27.5411003 1164.85587,27.5411003 1164.39945,27.9975175 L1162.99752,29.3994506 C1162.5411,29.8558678 1162.5411,30.5951509 1162.99752,31.051568 L1163.29053,31.3457035 C1163.82132,31.8764997 1163.93853,32.6811463 1163.60833,33.3550659 C1163.42238,33.737104 1163.25784,34.1315385 1163.1181,34.5372427 C1162.87581,35.2460979 1162.2233,35.730689 1161.47387,35.730689 L1161.05915,35.730689 C1160.41453,35.730689 1159.8905,36.2535965 1159.8905,36.8982153 L1159.8905,38.8827847 C1159.8905,39.5274035 1160.41453,40.050311 1161.05915,40.050311 L1161.47387,40.050311 C1162.2233,40.050311 1162.87581,40.5349021 1163.1181,41.2437573 C1163.25784,41.6494615 1163.42238,42.043896 1163.60833,42.4259341 C1163.93853,43.0998537 1163.82132,43.9045003 1163.29053,44.4352965 L1162.99752,44.729432 C1162.5411,45.1858491 1162.5411,45.9251322 1162.99752,46.3815494 L1164.39945,47.7846095 C1164.85587,48.2398997 1165.59515,48.2398997 1166.05157,47.7846095 L1166.3288,47.5073783 C1166.86185,46.9743282 1167.66988,46.8582517 1168.34605,47.1929576 C1168.7326,47.3845401 1169.13267,47.5524566 1169.544,47.694453 C1170.24948,47.9390024 1170.73069,48.590383 1170.73069,49.3364278 L1170.73069,49.7218467 C1170.73069,50.3675925 1171.2536,50.8905 1171.89822,50.8905 L1173.88278,50.8905 C1174.5274,50.8905 1175.05031,50.3675925 1175.05031,49.7218467 L1175.05031,49.3713634 C1175.05031,48.6208108 1175.53716,47.9671763 1176.24827,47.7260078 C1176.66975,47.5828844 1177.07883,47.412714 1177.47439,47.2188776 C1178.14831,46.8886795 1178.95296,47.0070099 1179.48263,47.5378061 L1179.72943,47.7846095 C1180.18585,48.2398997 1180.92513,48.2398997 1181.38155,47.7846095 L1182.78461,46.3815494 C1183.2399,45.9251322 1183.2399,45.1858491 1182.78461,44.729432 L1182.55471,44.499533 C1182.02166,43.9664828 1181.90558,43.1584554 1182.24029,42.4834088 C1182.43863,42.0833395 1182.61219,41.6686197 1182.75756,41.2415034 C1182.99986,40.5337751 1183.65237,40.050311 1184.40066,40.050311 L1184.72185,40.050311 C1185.36759,40.050311 1185.8905,39.5274035 1185.8905,38.8827847 L1185.8905,38.8827847 Z M1174.47444,44.4352965 C1169.57556,45.520555 1165.30665,41.252773 1166.39304,36.3538956 C1166.94074,33.8847352 1168.93319,31.8934041 1171.40123,31.3457035 C1176.30011,30.260445 1180.56789,34.528227 1179.48263,39.4271044 C1178.93493,41.8951379 1176.9436,43.8875959 1174.47444,44.4352965 L1174.47444,44.4352965 Z" id="settings"></path>
        </g>
    </g>
</svg>